G75*
%MOIN*%
%OFA0B0*%
%FSLAX24Y24*%
%IPPOS*%
%LPD*%
%AMOC8*
5,1,8,0,0,1.08239X$1,22.5*
%
%ADD10C,0.0000*%
%ADD11C,0.0120*%
%ADD12C,0.0050*%
%ADD13C,0.0080*%
%ADD14C,0.0010*%
%ADD15C,0.0060*%
%ADD16C,0.0020*%
%ADD17C,0.0070*%
%ADD18R,0.0350X0.0500*%
%ADD19C,0.0040*%
D10*
X000830Y004250D02*
X000832Y004300D01*
X000838Y004350D01*
X000848Y004400D01*
X000861Y004448D01*
X000878Y004496D01*
X000899Y004542D01*
X000923Y004586D01*
X000951Y004628D01*
X000982Y004668D01*
X001016Y004705D01*
X001053Y004740D01*
X001092Y004771D01*
X001133Y004800D01*
X001177Y004825D01*
X001223Y004847D01*
X001270Y004865D01*
X001318Y004879D01*
X001367Y004890D01*
X001417Y004897D01*
X001467Y004900D01*
X001518Y004899D01*
X001568Y004894D01*
X001618Y004885D01*
X001666Y004873D01*
X001714Y004856D01*
X001760Y004836D01*
X001805Y004813D01*
X001848Y004786D01*
X001888Y004756D01*
X001926Y004723D01*
X001961Y004687D01*
X001994Y004648D01*
X002023Y004607D01*
X002049Y004564D01*
X002072Y004519D01*
X002091Y004472D01*
X002106Y004424D01*
X002118Y004375D01*
X002126Y004325D01*
X002130Y004275D01*
X002130Y004225D01*
X002126Y004175D01*
X002118Y004125D01*
X002106Y004076D01*
X002091Y004028D01*
X002072Y003981D01*
X002049Y003936D01*
X002023Y003893D01*
X001994Y003852D01*
X001961Y003813D01*
X001926Y003777D01*
X001888Y003744D01*
X001848Y003714D01*
X001805Y003687D01*
X001760Y003664D01*
X001714Y003644D01*
X001666Y003627D01*
X001618Y003615D01*
X001568Y003606D01*
X001518Y003601D01*
X001467Y003600D01*
X001417Y003603D01*
X001367Y003610D01*
X001318Y003621D01*
X001270Y003635D01*
X001223Y003653D01*
X001177Y003675D01*
X001133Y003700D01*
X001092Y003729D01*
X001053Y003760D01*
X001016Y003795D01*
X000982Y003832D01*
X000951Y003872D01*
X000923Y003914D01*
X000899Y003958D01*
X000878Y004004D01*
X000861Y004052D01*
X000848Y004100D01*
X000838Y004150D01*
X000832Y004200D01*
X000830Y004250D01*
X005034Y000502D02*
X005034Y020187D01*
X018813Y020187D01*
X018813Y000502D01*
X005034Y000502D01*
X000830Y008554D02*
X000832Y008604D01*
X000838Y008654D01*
X000848Y008704D01*
X000861Y008752D01*
X000878Y008800D01*
X000899Y008846D01*
X000923Y008890D01*
X000951Y008932D01*
X000982Y008972D01*
X001016Y009009D01*
X001053Y009044D01*
X001092Y009075D01*
X001133Y009104D01*
X001177Y009129D01*
X001223Y009151D01*
X001270Y009169D01*
X001318Y009183D01*
X001367Y009194D01*
X001417Y009201D01*
X001467Y009204D01*
X001518Y009203D01*
X001568Y009198D01*
X001618Y009189D01*
X001666Y009177D01*
X001714Y009160D01*
X001760Y009140D01*
X001805Y009117D01*
X001848Y009090D01*
X001888Y009060D01*
X001926Y009027D01*
X001961Y008991D01*
X001994Y008952D01*
X002023Y008911D01*
X002049Y008868D01*
X002072Y008823D01*
X002091Y008776D01*
X002106Y008728D01*
X002118Y008679D01*
X002126Y008629D01*
X002130Y008579D01*
X002130Y008529D01*
X002126Y008479D01*
X002118Y008429D01*
X002106Y008380D01*
X002091Y008332D01*
X002072Y008285D01*
X002049Y008240D01*
X002023Y008197D01*
X001994Y008156D01*
X001961Y008117D01*
X001926Y008081D01*
X001888Y008048D01*
X001848Y008018D01*
X001805Y007991D01*
X001760Y007968D01*
X001714Y007948D01*
X001666Y007931D01*
X001618Y007919D01*
X001568Y007910D01*
X001518Y007905D01*
X001467Y007904D01*
X001417Y007907D01*
X001367Y007914D01*
X001318Y007925D01*
X001270Y007939D01*
X001223Y007957D01*
X001177Y007979D01*
X001133Y008004D01*
X001092Y008033D01*
X001053Y008064D01*
X001016Y008099D01*
X000982Y008136D01*
X000951Y008176D01*
X000923Y008218D01*
X000899Y008262D01*
X000878Y008308D01*
X000861Y008356D01*
X000848Y008404D01*
X000838Y008454D01*
X000832Y008504D01*
X000830Y008554D01*
D11*
X013332Y011266D02*
X015632Y011266D01*
X015632Y019266D01*
X014882Y019266D01*
X014880Y019227D01*
X014874Y019188D01*
X014865Y019150D01*
X014852Y019113D01*
X014835Y019077D01*
X014815Y019044D01*
X014791Y019012D01*
X014765Y018983D01*
X014736Y018957D01*
X014704Y018933D01*
X014671Y018913D01*
X014635Y018896D01*
X014598Y018883D01*
X014560Y018874D01*
X014521Y018868D01*
X014482Y018866D01*
X014443Y018868D01*
X014404Y018874D01*
X014366Y018883D01*
X014329Y018896D01*
X014293Y018913D01*
X014260Y018933D01*
X014228Y018957D01*
X014199Y018983D01*
X014173Y019012D01*
X014149Y019044D01*
X014129Y019077D01*
X014112Y019113D01*
X014099Y019150D01*
X014090Y019188D01*
X014084Y019227D01*
X014082Y019266D01*
X013332Y019266D01*
X013332Y011266D01*
D12*
X018752Y017590D02*
X018827Y017665D01*
X018827Y017740D01*
X018752Y017815D01*
X018377Y017815D01*
X018377Y017740D02*
X018377Y017890D01*
X018377Y018050D02*
X018377Y018275D01*
X018452Y018350D01*
X018602Y018350D01*
X018677Y018275D01*
X018677Y018050D01*
X018827Y018050D02*
X018377Y018050D01*
X018527Y018510D02*
X018377Y018661D01*
X018827Y018661D01*
X018827Y018811D02*
X018827Y018510D01*
X014118Y019441D02*
X013818Y019441D01*
X013968Y019441D02*
X013968Y019892D01*
X013818Y019741D01*
X013658Y019892D02*
X013658Y019516D01*
X013583Y019441D01*
X013432Y019441D01*
X013357Y019516D01*
X013357Y019892D01*
X009276Y003494D02*
X009276Y003194D01*
X009051Y003419D01*
X009501Y003419D01*
X009276Y003034D02*
X009351Y002959D01*
X009351Y002733D01*
X009501Y002733D02*
X009051Y002733D01*
X009051Y002959D01*
X009126Y003034D01*
X009276Y003034D01*
X009051Y002573D02*
X009051Y002423D01*
X009051Y002498D02*
X009426Y002498D01*
X009501Y002423D01*
X009501Y002348D01*
X009426Y002273D01*
X009290Y000742D02*
X009140Y000742D01*
X009065Y000667D01*
X008905Y000667D02*
X008905Y000517D01*
X008830Y000442D01*
X008605Y000442D01*
X008605Y000292D02*
X008605Y000742D01*
X008830Y000742D01*
X008905Y000667D01*
X009290Y000742D02*
X009365Y000667D01*
X009365Y000592D01*
X009065Y000292D01*
X009365Y000292D01*
X008370Y000367D02*
X008370Y000742D01*
X008445Y000742D02*
X008294Y000742D01*
X008370Y000367D02*
X008294Y000292D01*
X008219Y000292D01*
X008144Y000367D01*
D13*
X008221Y000987D02*
X007721Y000987D01*
X007471Y001237D01*
X007471Y001737D01*
X007721Y001987D01*
X008221Y001987D01*
X008471Y001737D01*
X008721Y001987D01*
X009221Y001987D01*
X009471Y001737D01*
X009471Y001237D01*
X009221Y000987D01*
X008721Y000987D01*
X008471Y001237D01*
X008221Y000987D01*
X009746Y002528D02*
X009996Y002278D01*
X010496Y002278D01*
X010746Y002528D01*
X010746Y003028D01*
X010496Y003278D01*
X010746Y003528D01*
X010746Y004028D01*
X010496Y004278D01*
X010746Y004528D01*
X010746Y005028D01*
X010496Y005278D01*
X010746Y005528D01*
X010746Y006028D01*
X010496Y006278D01*
X010746Y006528D01*
X010746Y007028D01*
X010496Y007278D01*
X010746Y007528D01*
X010746Y008028D01*
X010496Y008278D01*
X010746Y008528D01*
X010746Y009028D01*
X010496Y009278D01*
X010746Y009528D01*
X010746Y010028D01*
X010496Y010278D01*
X009996Y010278D01*
X009746Y010028D01*
X009746Y009528D01*
X009996Y009278D01*
X009746Y009028D01*
X009746Y008528D01*
X009996Y008278D01*
X009746Y008028D01*
X009746Y007528D01*
X009996Y007278D01*
X009746Y007028D01*
X009746Y006528D01*
X009996Y006278D01*
X009746Y006028D01*
X009746Y005528D01*
X009996Y005278D01*
X009746Y005028D01*
X009746Y004528D01*
X009996Y004278D01*
X009746Y004028D01*
X009746Y003528D01*
X009996Y003278D01*
X009746Y003028D01*
X009746Y002528D01*
X006649Y012007D02*
X006649Y012407D01*
X006215Y012707D02*
X006217Y012769D01*
X006223Y012832D01*
X006233Y012893D01*
X006247Y012954D01*
X006264Y013014D01*
X006285Y013073D01*
X006311Y013130D01*
X006339Y013185D01*
X006371Y013239D01*
X006407Y013290D01*
X006445Y013340D01*
X006487Y013386D01*
X006531Y013430D01*
X006579Y013471D01*
X006628Y013509D01*
X006680Y013543D01*
X006734Y013574D01*
X006790Y013602D01*
X006848Y013626D01*
X006907Y013647D01*
X006967Y013663D01*
X007028Y013676D01*
X007090Y013685D01*
X007152Y013690D01*
X007215Y013691D01*
X007277Y013688D01*
X007339Y013681D01*
X007401Y013670D01*
X007461Y013655D01*
X007521Y013637D01*
X007579Y013615D01*
X007636Y013589D01*
X007691Y013559D01*
X007744Y013526D01*
X007795Y013490D01*
X007843Y013451D01*
X007889Y013408D01*
X007932Y013363D01*
X007972Y013315D01*
X008009Y013265D01*
X008043Y013212D01*
X008074Y013158D01*
X008100Y013102D01*
X008124Y013044D01*
X008143Y012984D01*
X008159Y012924D01*
X008171Y012862D01*
X008179Y012801D01*
X008183Y012738D01*
X008183Y012676D01*
X008179Y012613D01*
X008171Y012552D01*
X008159Y012490D01*
X008143Y012430D01*
X008124Y012370D01*
X008100Y012312D01*
X008074Y012256D01*
X008043Y012202D01*
X008009Y012149D01*
X007972Y012099D01*
X007932Y012051D01*
X007889Y012006D01*
X007843Y011963D01*
X007795Y011924D01*
X007744Y011888D01*
X007691Y011855D01*
X007636Y011825D01*
X007579Y011799D01*
X007521Y011777D01*
X007461Y011759D01*
X007401Y011744D01*
X007339Y011733D01*
X007277Y011726D01*
X007215Y011723D01*
X007152Y011724D01*
X007090Y011729D01*
X007028Y011738D01*
X006967Y011751D01*
X006907Y011767D01*
X006848Y011788D01*
X006790Y011812D01*
X006734Y011840D01*
X006680Y011871D01*
X006628Y011905D01*
X006579Y011943D01*
X006531Y011984D01*
X006487Y012028D01*
X006445Y012074D01*
X006407Y012124D01*
X006371Y012175D01*
X006339Y012229D01*
X006311Y012284D01*
X006285Y012341D01*
X006264Y012400D01*
X006247Y012460D01*
X006233Y012521D01*
X006223Y012582D01*
X006217Y012645D01*
X006215Y012707D01*
X006649Y014566D02*
X006649Y014966D01*
X006215Y015266D02*
X006217Y015328D01*
X006223Y015391D01*
X006233Y015452D01*
X006247Y015513D01*
X006264Y015573D01*
X006285Y015632D01*
X006311Y015689D01*
X006339Y015744D01*
X006371Y015798D01*
X006407Y015849D01*
X006445Y015899D01*
X006487Y015945D01*
X006531Y015989D01*
X006579Y016030D01*
X006628Y016068D01*
X006680Y016102D01*
X006734Y016133D01*
X006790Y016161D01*
X006848Y016185D01*
X006907Y016206D01*
X006967Y016222D01*
X007028Y016235D01*
X007090Y016244D01*
X007152Y016249D01*
X007215Y016250D01*
X007277Y016247D01*
X007339Y016240D01*
X007401Y016229D01*
X007461Y016214D01*
X007521Y016196D01*
X007579Y016174D01*
X007636Y016148D01*
X007691Y016118D01*
X007744Y016085D01*
X007795Y016049D01*
X007843Y016010D01*
X007889Y015967D01*
X007932Y015922D01*
X007972Y015874D01*
X008009Y015824D01*
X008043Y015771D01*
X008074Y015717D01*
X008100Y015661D01*
X008124Y015603D01*
X008143Y015543D01*
X008159Y015483D01*
X008171Y015421D01*
X008179Y015360D01*
X008183Y015297D01*
X008183Y015235D01*
X008179Y015172D01*
X008171Y015111D01*
X008159Y015049D01*
X008143Y014989D01*
X008124Y014929D01*
X008100Y014871D01*
X008074Y014815D01*
X008043Y014761D01*
X008009Y014708D01*
X007972Y014658D01*
X007932Y014610D01*
X007889Y014565D01*
X007843Y014522D01*
X007795Y014483D01*
X007744Y014447D01*
X007691Y014414D01*
X007636Y014384D01*
X007579Y014358D01*
X007521Y014336D01*
X007461Y014318D01*
X007401Y014303D01*
X007339Y014292D01*
X007277Y014285D01*
X007215Y014282D01*
X007152Y014283D01*
X007090Y014288D01*
X007028Y014297D01*
X006967Y014310D01*
X006907Y014326D01*
X006848Y014347D01*
X006790Y014371D01*
X006734Y014399D01*
X006680Y014430D01*
X006628Y014464D01*
X006579Y014502D01*
X006531Y014543D01*
X006487Y014587D01*
X006445Y014633D01*
X006407Y014683D01*
X006371Y014734D01*
X006339Y014788D01*
X006311Y014843D01*
X006285Y014900D01*
X006264Y014959D01*
X006247Y015019D01*
X006233Y015080D01*
X006223Y015141D01*
X006217Y015204D01*
X006215Y015266D01*
X006215Y017825D02*
X006217Y017887D01*
X006223Y017950D01*
X006233Y018011D01*
X006247Y018072D01*
X006264Y018132D01*
X006285Y018191D01*
X006311Y018248D01*
X006339Y018303D01*
X006371Y018357D01*
X006407Y018408D01*
X006445Y018458D01*
X006487Y018504D01*
X006531Y018548D01*
X006579Y018589D01*
X006628Y018627D01*
X006680Y018661D01*
X006734Y018692D01*
X006790Y018720D01*
X006848Y018744D01*
X006907Y018765D01*
X006967Y018781D01*
X007028Y018794D01*
X007090Y018803D01*
X007152Y018808D01*
X007215Y018809D01*
X007277Y018806D01*
X007339Y018799D01*
X007401Y018788D01*
X007461Y018773D01*
X007521Y018755D01*
X007579Y018733D01*
X007636Y018707D01*
X007691Y018677D01*
X007744Y018644D01*
X007795Y018608D01*
X007843Y018569D01*
X007889Y018526D01*
X007932Y018481D01*
X007972Y018433D01*
X008009Y018383D01*
X008043Y018330D01*
X008074Y018276D01*
X008100Y018220D01*
X008124Y018162D01*
X008143Y018102D01*
X008159Y018042D01*
X008171Y017980D01*
X008179Y017919D01*
X008183Y017856D01*
X008183Y017794D01*
X008179Y017731D01*
X008171Y017670D01*
X008159Y017608D01*
X008143Y017548D01*
X008124Y017488D01*
X008100Y017430D01*
X008074Y017374D01*
X008043Y017320D01*
X008009Y017267D01*
X007972Y017217D01*
X007932Y017169D01*
X007889Y017124D01*
X007843Y017081D01*
X007795Y017042D01*
X007744Y017006D01*
X007691Y016973D01*
X007636Y016943D01*
X007579Y016917D01*
X007521Y016895D01*
X007461Y016877D01*
X007401Y016862D01*
X007339Y016851D01*
X007277Y016844D01*
X007215Y016841D01*
X007152Y016842D01*
X007090Y016847D01*
X007028Y016856D01*
X006967Y016869D01*
X006907Y016885D01*
X006848Y016906D01*
X006790Y016930D01*
X006734Y016958D01*
X006680Y016989D01*
X006628Y017023D01*
X006579Y017061D01*
X006531Y017102D01*
X006487Y017146D01*
X006445Y017192D01*
X006407Y017242D01*
X006371Y017293D01*
X006339Y017347D01*
X006311Y017402D01*
X006285Y017459D01*
X006264Y017518D01*
X006247Y017578D01*
X006233Y017639D01*
X006223Y017700D01*
X006217Y017763D01*
X006215Y017825D01*
X007749Y018125D02*
X007749Y018525D01*
X009728Y017517D02*
X009728Y017117D01*
X009294Y017817D02*
X009296Y017879D01*
X009302Y017942D01*
X009312Y018003D01*
X009326Y018064D01*
X009343Y018124D01*
X009364Y018183D01*
X009390Y018240D01*
X009418Y018295D01*
X009450Y018349D01*
X009486Y018400D01*
X009524Y018450D01*
X009566Y018496D01*
X009610Y018540D01*
X009658Y018581D01*
X009707Y018619D01*
X009759Y018653D01*
X009813Y018684D01*
X009869Y018712D01*
X009927Y018736D01*
X009986Y018757D01*
X010046Y018773D01*
X010107Y018786D01*
X010169Y018795D01*
X010231Y018800D01*
X010294Y018801D01*
X010356Y018798D01*
X010418Y018791D01*
X010480Y018780D01*
X010540Y018765D01*
X010600Y018747D01*
X010658Y018725D01*
X010715Y018699D01*
X010770Y018669D01*
X010823Y018636D01*
X010874Y018600D01*
X010922Y018561D01*
X010968Y018518D01*
X011011Y018473D01*
X011051Y018425D01*
X011088Y018375D01*
X011122Y018322D01*
X011153Y018268D01*
X011179Y018212D01*
X011203Y018154D01*
X011222Y018094D01*
X011238Y018034D01*
X011250Y017972D01*
X011258Y017911D01*
X011262Y017848D01*
X011262Y017786D01*
X011258Y017723D01*
X011250Y017662D01*
X011238Y017600D01*
X011222Y017540D01*
X011203Y017480D01*
X011179Y017422D01*
X011153Y017366D01*
X011122Y017312D01*
X011088Y017259D01*
X011051Y017209D01*
X011011Y017161D01*
X010968Y017116D01*
X010922Y017073D01*
X010874Y017034D01*
X010823Y016998D01*
X010770Y016965D01*
X010715Y016935D01*
X010658Y016909D01*
X010600Y016887D01*
X010540Y016869D01*
X010480Y016854D01*
X010418Y016843D01*
X010356Y016836D01*
X010294Y016833D01*
X010231Y016834D01*
X010169Y016839D01*
X010107Y016848D01*
X010046Y016861D01*
X009986Y016877D01*
X009927Y016898D01*
X009869Y016922D01*
X009813Y016950D01*
X009759Y016981D01*
X009707Y017015D01*
X009658Y017053D01*
X009610Y017094D01*
X009566Y017138D01*
X009524Y017184D01*
X009486Y017234D01*
X009450Y017285D01*
X009418Y017339D01*
X009390Y017394D01*
X009364Y017451D01*
X009343Y017510D01*
X009326Y017570D01*
X009312Y017631D01*
X009302Y017692D01*
X009296Y017755D01*
X009294Y017817D01*
X009365Y015266D02*
X009367Y015328D01*
X009373Y015391D01*
X009383Y015452D01*
X009397Y015513D01*
X009414Y015573D01*
X009435Y015632D01*
X009461Y015689D01*
X009489Y015744D01*
X009521Y015798D01*
X009557Y015849D01*
X009595Y015899D01*
X009637Y015945D01*
X009681Y015989D01*
X009729Y016030D01*
X009778Y016068D01*
X009830Y016102D01*
X009884Y016133D01*
X009940Y016161D01*
X009998Y016185D01*
X010057Y016206D01*
X010117Y016222D01*
X010178Y016235D01*
X010240Y016244D01*
X010302Y016249D01*
X010365Y016250D01*
X010427Y016247D01*
X010489Y016240D01*
X010551Y016229D01*
X010611Y016214D01*
X010671Y016196D01*
X010729Y016174D01*
X010786Y016148D01*
X010841Y016118D01*
X010894Y016085D01*
X010945Y016049D01*
X010993Y016010D01*
X011039Y015967D01*
X011082Y015922D01*
X011122Y015874D01*
X011159Y015824D01*
X011193Y015771D01*
X011224Y015717D01*
X011250Y015661D01*
X011274Y015603D01*
X011293Y015543D01*
X011309Y015483D01*
X011321Y015421D01*
X011329Y015360D01*
X011333Y015297D01*
X011333Y015235D01*
X011329Y015172D01*
X011321Y015111D01*
X011309Y015049D01*
X011293Y014989D01*
X011274Y014929D01*
X011250Y014871D01*
X011224Y014815D01*
X011193Y014761D01*
X011159Y014708D01*
X011122Y014658D01*
X011082Y014610D01*
X011039Y014565D01*
X010993Y014522D01*
X010945Y014483D01*
X010894Y014447D01*
X010841Y014414D01*
X010786Y014384D01*
X010729Y014358D01*
X010671Y014336D01*
X010611Y014318D01*
X010551Y014303D01*
X010489Y014292D01*
X010427Y014285D01*
X010365Y014282D01*
X010302Y014283D01*
X010240Y014288D01*
X010178Y014297D01*
X010117Y014310D01*
X010057Y014326D01*
X009998Y014347D01*
X009940Y014371D01*
X009884Y014399D01*
X009830Y014430D01*
X009778Y014464D01*
X009729Y014502D01*
X009681Y014543D01*
X009637Y014587D01*
X009595Y014633D01*
X009557Y014683D01*
X009521Y014734D01*
X009489Y014788D01*
X009461Y014843D01*
X009435Y014900D01*
X009414Y014959D01*
X009397Y015019D01*
X009383Y015080D01*
X009373Y015141D01*
X009367Y015204D01*
X009365Y015266D01*
X009799Y014966D02*
X009799Y014566D01*
X010899Y013407D02*
X010899Y013007D01*
X009365Y012707D02*
X009367Y012769D01*
X009373Y012832D01*
X009383Y012893D01*
X009397Y012954D01*
X009414Y013014D01*
X009435Y013073D01*
X009461Y013130D01*
X009489Y013185D01*
X009521Y013239D01*
X009557Y013290D01*
X009595Y013340D01*
X009637Y013386D01*
X009681Y013430D01*
X009729Y013471D01*
X009778Y013509D01*
X009830Y013543D01*
X009884Y013574D01*
X009940Y013602D01*
X009998Y013626D01*
X010057Y013647D01*
X010117Y013663D01*
X010178Y013676D01*
X010240Y013685D01*
X010302Y013690D01*
X010365Y013691D01*
X010427Y013688D01*
X010489Y013681D01*
X010551Y013670D01*
X010611Y013655D01*
X010671Y013637D01*
X010729Y013615D01*
X010786Y013589D01*
X010841Y013559D01*
X010894Y013526D01*
X010945Y013490D01*
X010993Y013451D01*
X011039Y013408D01*
X011082Y013363D01*
X011122Y013315D01*
X011159Y013265D01*
X011193Y013212D01*
X011224Y013158D01*
X011250Y013102D01*
X011274Y013044D01*
X011293Y012984D01*
X011309Y012924D01*
X011321Y012862D01*
X011329Y012801D01*
X011333Y012738D01*
X011333Y012676D01*
X011329Y012613D01*
X011321Y012552D01*
X011309Y012490D01*
X011293Y012430D01*
X011274Y012370D01*
X011250Y012312D01*
X011224Y012256D01*
X011193Y012202D01*
X011159Y012149D01*
X011122Y012099D01*
X011082Y012051D01*
X011039Y012006D01*
X010993Y011963D01*
X010945Y011924D01*
X010894Y011888D01*
X010841Y011855D01*
X010786Y011825D01*
X010729Y011799D01*
X010671Y011777D01*
X010611Y011759D01*
X010551Y011744D01*
X010489Y011733D01*
X010427Y011726D01*
X010365Y011723D01*
X010302Y011724D01*
X010240Y011729D01*
X010178Y011738D01*
X010117Y011751D01*
X010057Y011767D01*
X009998Y011788D01*
X009940Y011812D01*
X009884Y011840D01*
X009830Y011871D01*
X009778Y011905D01*
X009729Y011943D01*
X009681Y011984D01*
X009637Y012028D01*
X009595Y012074D01*
X009557Y012124D01*
X009521Y012175D01*
X009489Y012229D01*
X009461Y012284D01*
X009435Y012341D01*
X009414Y012400D01*
X009397Y012460D01*
X009383Y012521D01*
X009373Y012582D01*
X009367Y012645D01*
X009365Y012707D01*
X017132Y014426D02*
X017382Y014176D01*
X017882Y014176D01*
X018132Y014426D01*
X018132Y014926D01*
X017882Y015176D01*
X017382Y015176D01*
X017132Y014926D01*
X017132Y014426D01*
X017382Y015916D02*
X017882Y015916D01*
X018132Y016166D01*
X018132Y016666D01*
X017882Y016916D01*
X018132Y017166D01*
X018132Y017666D01*
X017882Y017916D01*
X018132Y018166D01*
X018132Y018666D01*
X017882Y018916D01*
X017382Y018916D01*
X017132Y018666D01*
X017132Y018166D01*
X017382Y017916D01*
X017132Y017666D01*
X017132Y017166D01*
X017382Y016916D01*
X017132Y016666D01*
X017132Y016166D01*
X017382Y015916D01*
D14*
X011104Y012990D02*
X010953Y012990D01*
X011028Y012915D01*
X011028Y013015D01*
X010978Y012868D02*
X010953Y012843D01*
X010953Y012793D01*
X010978Y012767D01*
X011078Y012767D01*
X011104Y012793D01*
X011104Y012843D01*
X011078Y012868D01*
X009718Y014921D02*
X009618Y014921D01*
X009593Y014946D01*
X009593Y014996D01*
X009618Y015021D01*
X009618Y015069D02*
X009593Y015094D01*
X009593Y015144D01*
X009618Y015169D01*
X009643Y015169D01*
X009744Y015069D01*
X009744Y015169D01*
X009718Y015021D02*
X009744Y014996D01*
X009744Y014946D01*
X009718Y014921D01*
X009648Y017472D02*
X009673Y017497D01*
X009673Y017547D01*
X009648Y017572D01*
X009673Y017620D02*
X009673Y017720D01*
X009673Y017670D02*
X009523Y017670D01*
X009573Y017620D01*
X009548Y017572D02*
X009523Y017547D01*
X009523Y017497D01*
X009548Y017472D01*
X009648Y017472D01*
X007954Y017911D02*
X007954Y017961D01*
X007929Y017986D01*
X007929Y018033D02*
X007954Y018058D01*
X007954Y018108D01*
X007929Y018133D01*
X007904Y018133D01*
X007879Y018108D01*
X007879Y018083D01*
X007879Y018108D02*
X007854Y018133D01*
X007829Y018133D01*
X007804Y018108D01*
X007804Y018058D01*
X007829Y018033D01*
X007829Y017986D02*
X007804Y017961D01*
X007804Y017911D01*
X007829Y017886D01*
X007929Y017886D01*
X007954Y017911D01*
X006569Y015169D02*
X006594Y015144D01*
X006594Y015094D01*
X006569Y015069D01*
X006569Y015021D02*
X006594Y014996D01*
X006594Y014946D01*
X006569Y014921D01*
X006469Y014921D01*
X006444Y014946D01*
X006444Y014996D01*
X006469Y015021D01*
X006444Y015069D02*
X006519Y015069D01*
X006494Y015119D01*
X006494Y015144D01*
X006519Y015169D01*
X006569Y015169D01*
X006444Y015169D02*
X006444Y015069D01*
X006444Y012610D02*
X006469Y012560D01*
X006519Y012509D01*
X006519Y012585D01*
X006544Y012610D01*
X006569Y012610D01*
X006594Y012585D01*
X006594Y012534D01*
X006569Y012509D01*
X006519Y012509D01*
X006569Y012462D02*
X006594Y012437D01*
X006594Y012387D01*
X006569Y012362D01*
X006469Y012362D01*
X006444Y012387D01*
X006444Y012437D01*
X006469Y012462D01*
D15*
X000880Y002200D02*
X000130Y002200D01*
X000130Y006300D01*
X000880Y006300D01*
X000880Y005950D01*
X001480Y005950D01*
X001480Y006300D01*
X006380Y006300D01*
X006380Y002200D01*
X001480Y002200D01*
X001480Y002550D01*
X000880Y002550D01*
X000880Y002200D01*
X000770Y004250D02*
X000772Y004303D01*
X000778Y004356D01*
X000788Y004408D01*
X000802Y004459D01*
X000819Y004509D01*
X000840Y004558D01*
X000865Y004605D01*
X000893Y004650D01*
X000925Y004693D01*
X000960Y004733D01*
X000997Y004770D01*
X001037Y004805D01*
X001080Y004837D01*
X001125Y004865D01*
X001172Y004890D01*
X001221Y004911D01*
X001271Y004928D01*
X001322Y004942D01*
X001374Y004952D01*
X001427Y004958D01*
X001480Y004960D01*
X001533Y004958D01*
X001586Y004952D01*
X001638Y004942D01*
X001689Y004928D01*
X001739Y004911D01*
X001788Y004890D01*
X001835Y004865D01*
X001880Y004837D01*
X001923Y004805D01*
X001963Y004770D01*
X002000Y004733D01*
X002035Y004693D01*
X002067Y004650D01*
X002095Y004605D01*
X002120Y004558D01*
X002141Y004509D01*
X002158Y004459D01*
X002172Y004408D01*
X002182Y004356D01*
X002188Y004303D01*
X002190Y004250D01*
X002188Y004197D01*
X002182Y004144D01*
X002172Y004092D01*
X002158Y004041D01*
X002141Y003991D01*
X002120Y003942D01*
X002095Y003895D01*
X002067Y003850D01*
X002035Y003807D01*
X002000Y003767D01*
X001963Y003730D01*
X001923Y003695D01*
X001880Y003663D01*
X001835Y003635D01*
X001788Y003610D01*
X001739Y003589D01*
X001689Y003572D01*
X001638Y003558D01*
X001586Y003548D01*
X001533Y003542D01*
X001480Y003540D01*
X001427Y003542D01*
X001374Y003548D01*
X001322Y003558D01*
X001271Y003572D01*
X001221Y003589D01*
X001172Y003610D01*
X001125Y003635D01*
X001080Y003663D01*
X001037Y003695D01*
X000997Y003730D01*
X000960Y003767D01*
X000925Y003807D01*
X000893Y003850D01*
X000865Y003895D01*
X000840Y003942D01*
X000819Y003991D01*
X000802Y004041D01*
X000788Y004092D01*
X000778Y004144D01*
X000772Y004197D01*
X000770Y004250D01*
X000880Y006504D02*
X000130Y006504D01*
X000130Y010604D01*
X000880Y010604D01*
X000880Y010254D01*
X001480Y010254D01*
X001480Y010604D01*
X006380Y010604D01*
X006380Y006504D01*
X001480Y006504D01*
X001480Y006854D01*
X000880Y006854D01*
X000880Y006504D01*
X000770Y008554D02*
X000772Y008607D01*
X000778Y008660D01*
X000788Y008712D01*
X000802Y008763D01*
X000819Y008813D01*
X000840Y008862D01*
X000865Y008909D01*
X000893Y008954D01*
X000925Y008997D01*
X000960Y009037D01*
X000997Y009074D01*
X001037Y009109D01*
X001080Y009141D01*
X001125Y009169D01*
X001172Y009194D01*
X001221Y009215D01*
X001271Y009232D01*
X001322Y009246D01*
X001374Y009256D01*
X001427Y009262D01*
X001480Y009264D01*
X001533Y009262D01*
X001586Y009256D01*
X001638Y009246D01*
X001689Y009232D01*
X001739Y009215D01*
X001788Y009194D01*
X001835Y009169D01*
X001880Y009141D01*
X001923Y009109D01*
X001963Y009074D01*
X002000Y009037D01*
X002035Y008997D01*
X002067Y008954D01*
X002095Y008909D01*
X002120Y008862D01*
X002141Y008813D01*
X002158Y008763D01*
X002172Y008712D01*
X002182Y008660D01*
X002188Y008607D01*
X002190Y008554D01*
X002188Y008501D01*
X002182Y008448D01*
X002172Y008396D01*
X002158Y008345D01*
X002141Y008295D01*
X002120Y008246D01*
X002095Y008199D01*
X002067Y008154D01*
X002035Y008111D01*
X002000Y008071D01*
X001963Y008034D01*
X001923Y007999D01*
X001880Y007967D01*
X001835Y007939D01*
X001788Y007914D01*
X001739Y007893D01*
X001689Y007876D01*
X001638Y007862D01*
X001586Y007852D01*
X001533Y007846D01*
X001480Y007844D01*
X001427Y007846D01*
X001374Y007852D01*
X001322Y007862D01*
X001271Y007876D01*
X001221Y007893D01*
X001172Y007914D01*
X001125Y007939D01*
X001080Y007967D01*
X001037Y007999D01*
X000997Y008034D01*
X000960Y008071D01*
X000925Y008111D01*
X000893Y008154D01*
X000865Y008199D01*
X000840Y008246D01*
X000819Y008295D01*
X000802Y008345D01*
X000788Y008396D01*
X000778Y008448D01*
X000772Y008501D01*
X000770Y008554D01*
D16*
X002880Y010354D02*
X002880Y006754D01*
X006130Y006754D01*
X006130Y010354D01*
X002880Y010354D01*
X002880Y006050D02*
X002880Y002450D01*
X006130Y002450D01*
X006130Y006050D01*
X002880Y006050D01*
D17*
X003214Y007089D02*
X003214Y007299D01*
X003214Y007194D02*
X003845Y007194D01*
X003845Y007089D02*
X003845Y007299D01*
X003740Y007518D02*
X003845Y007623D01*
X003845Y007834D01*
X003740Y007939D01*
X003845Y008163D02*
X003845Y008583D01*
X003845Y008373D02*
X003214Y008373D01*
X003425Y008163D01*
X003320Y007939D02*
X003214Y007834D01*
X003214Y007623D01*
X003320Y007518D01*
X003740Y007518D01*
X003845Y004280D02*
X003845Y003860D01*
X003425Y004280D01*
X003320Y004280D01*
X003214Y004175D01*
X003214Y003965D01*
X003320Y003860D01*
X003320Y003636D02*
X003214Y003530D01*
X003214Y003320D01*
X003320Y003215D01*
X003740Y003215D01*
X003845Y003320D01*
X003845Y003530D01*
X003740Y003636D01*
X003845Y002996D02*
X003845Y002785D01*
X003845Y002891D02*
X003214Y002891D01*
X003214Y002996D02*
X003214Y002785D01*
D18*
X006555Y003250D03*
X006555Y004250D03*
X006555Y005250D03*
X006555Y007554D03*
X006555Y008554D03*
X006555Y009554D03*
D19*
X018122Y015492D02*
X018199Y015416D01*
X018275Y015416D01*
X018352Y015492D01*
X018352Y015876D01*
X018275Y015876D02*
X018429Y015876D01*
X018582Y015876D02*
X018813Y015876D01*
X018889Y015799D01*
X018889Y015646D01*
X018813Y015569D01*
X018582Y015569D01*
X018582Y015416D02*
X018582Y015876D01*
X019043Y015799D02*
X019119Y015876D01*
X019273Y015876D01*
X019350Y015799D01*
X019350Y015723D01*
X019273Y015646D01*
X019350Y015569D01*
X019350Y015492D01*
X019273Y015416D01*
X019119Y015416D01*
X019043Y015492D01*
X019196Y015646D02*
X019273Y015646D01*
M02*
