G75*
%MOIN*%
%OFA0B0*%
%FSLAX24Y24*%
%IPPOS*%
%LPD*%
%AMOC8*
5,1,8,0,0,1.08239X$1,22.5*
%
%ADD10C,0.0050*%
%ADD11C,0.0520*%
%ADD12R,0.0650X0.0650*%
%ADD13C,0.0650*%
%ADD14C,0.0740*%
%ADD15C,0.0600*%
%ADD16R,0.0740X0.0740*%
%ADD17C,0.0120*%
%ADD18C,0.0160*%
D10*
X006107Y001389D02*
X006107Y001659D01*
X006287Y001659D02*
X006107Y001389D01*
X006287Y001389D02*
X006287Y001659D01*
X006394Y001659D02*
X006484Y001659D01*
X006439Y001659D02*
X006439Y001389D01*
X006484Y001389D02*
X006394Y001389D01*
X006598Y001343D02*
X006779Y001343D01*
X006938Y001479D02*
X007073Y001479D01*
X007073Y001389D02*
X007073Y001659D01*
X006938Y001659D01*
X006893Y001614D01*
X006893Y001524D01*
X006938Y001479D01*
X018304Y014504D02*
X018304Y014774D01*
X018394Y014774D02*
X018214Y014774D01*
X018214Y016275D02*
X018214Y016546D01*
X018394Y016546D02*
X018394Y016275D01*
X018304Y016366D01*
X018214Y016275D01*
X018214Y017260D02*
X018304Y017350D01*
X018259Y017350D02*
X018394Y017350D01*
X018394Y017260D02*
X018394Y017530D01*
X018259Y017530D01*
X018214Y017485D01*
X018214Y017395D01*
X018259Y017350D01*
X018259Y018244D02*
X018214Y018289D01*
X018214Y018379D01*
X018304Y018379D01*
X018214Y018469D02*
X018259Y018514D01*
X018349Y018514D01*
X018394Y018469D01*
X018394Y018289D01*
X018349Y018244D01*
X018259Y018244D01*
D11*
X016242Y017766D02*
X015722Y017766D01*
X015722Y016766D02*
X016242Y016766D01*
X016242Y015766D02*
X015722Y015766D01*
X015722Y014766D02*
X016242Y014766D01*
X016242Y013766D02*
X015722Y013766D01*
X015722Y012766D02*
X016242Y012766D01*
X016242Y011766D02*
X015722Y011766D01*
X013242Y011766D02*
X012722Y011766D01*
X012722Y012766D02*
X013242Y012766D01*
X013242Y013766D02*
X012722Y013766D01*
X012722Y014766D02*
X013242Y014766D01*
X013242Y015766D02*
X012722Y015766D01*
X012722Y016766D02*
X013242Y016766D01*
X013242Y017766D02*
X012722Y017766D01*
X012722Y018766D02*
X013242Y018766D01*
X015722Y018766D02*
X016242Y018766D01*
D12*
X010349Y015766D03*
X010278Y018317D03*
X007199Y017325D03*
X007199Y015766D03*
X007199Y013207D03*
X010349Y012207D03*
D13*
X010349Y013207D03*
X010349Y014766D03*
X010278Y017317D03*
X007199Y018325D03*
X007199Y014766D03*
X007199Y012207D03*
D14*
X010296Y009778D03*
X010196Y008778D03*
X010296Y007778D03*
X010196Y006778D03*
X010296Y005778D03*
X010196Y004778D03*
X010296Y003778D03*
X008971Y001487D03*
X007971Y001487D03*
X017632Y014676D03*
X017632Y016416D03*
X017632Y017416D03*
X017632Y018416D03*
D15*
X007680Y009554D02*
X007080Y009554D01*
X007080Y008554D02*
X007680Y008554D01*
X007680Y007554D02*
X007080Y007554D01*
X007080Y005250D02*
X007680Y005250D01*
X007680Y004250D02*
X007080Y004250D01*
X007080Y003250D02*
X007680Y003250D01*
D16*
X010196Y002778D03*
D17*
X008774Y003258D02*
X007593Y002077D01*
X007986Y001684D01*
X007971Y001487D01*
X007593Y002077D02*
X007593Y003258D01*
X007380Y003250D01*
X008774Y003258D02*
X008774Y005227D01*
X007593Y006408D01*
X007593Y007589D01*
X007380Y007554D01*
X007199Y006408D02*
X006018Y007589D01*
X006018Y014676D01*
X006411Y015069D01*
X006411Y017825D01*
X006805Y018219D01*
X007199Y018219D01*
X007199Y018325D01*
X007199Y018613D01*
X007986Y019400D01*
X013498Y019400D01*
X014286Y018613D01*
X015860Y018613D01*
X015982Y018766D01*
X017435Y017432D02*
X017632Y017416D01*
X017435Y017432D02*
X016648Y016644D01*
X016254Y016644D01*
X015982Y016766D01*
X016254Y015857D02*
X015982Y015766D01*
X016254Y015857D02*
X017041Y015857D01*
X017435Y016250D01*
X017632Y016416D01*
X017632Y014676D02*
X016254Y014676D01*
X015982Y014766D01*
X015860Y013888D02*
X015982Y013766D01*
X015860Y013888D02*
X014286Y012313D01*
X014286Y008376D01*
X010349Y004439D01*
X010196Y004778D01*
X007380Y005250D02*
X007199Y005227D01*
X007199Y006408D01*
X007380Y009554D02*
X007593Y009558D01*
X008380Y009558D01*
X008380Y012313D01*
X007593Y013101D01*
X007199Y013101D01*
X007199Y013207D01*
X006411Y015069D02*
X007199Y015857D01*
X007199Y015766D01*
X007199Y017038D02*
X007199Y017325D01*
X007199Y017038D02*
X010349Y013888D01*
X010742Y014282D01*
X013498Y014282D01*
X013892Y014676D01*
X013892Y017038D01*
X013104Y017825D01*
X012982Y017766D01*
X012711Y018613D02*
X012982Y018766D01*
X012711Y018613D02*
X010349Y018613D01*
X010278Y018317D01*
X010278Y017317D02*
X010349Y017038D01*
X010742Y016644D01*
X012711Y016644D01*
X012982Y016766D01*
X012711Y015857D02*
X012982Y015766D01*
X012711Y015857D02*
X010349Y015857D01*
X010349Y015766D01*
X010349Y014766D02*
X010349Y014676D01*
X012711Y014676D01*
X012982Y014766D01*
X012711Y013888D02*
X012982Y013766D01*
X012711Y013888D02*
X010742Y013888D01*
X010349Y013495D01*
X010349Y013207D01*
X010296Y009778D02*
X010349Y009558D01*
X008380Y009558D01*
D18*
X005514Y000982D02*
X005514Y019707D01*
X018333Y019707D01*
X018333Y018739D01*
X018257Y018739D01*
X018166Y018739D01*
X018112Y018685D01*
X018102Y018704D01*
X018051Y018774D01*
X017990Y018835D01*
X017920Y018886D01*
X017843Y018926D01*
X017761Y018952D01*
X017675Y018966D01*
X017652Y018966D01*
X017652Y018436D01*
X017612Y018436D01*
X017612Y018966D01*
X017589Y018966D01*
X017503Y018952D01*
X017421Y018926D01*
X017344Y018886D01*
X017274Y018835D01*
X017212Y018774D01*
X017162Y018704D01*
X017122Y018627D01*
X017096Y018545D01*
X017082Y018459D01*
X017082Y018436D01*
X017612Y018436D01*
X017612Y018396D01*
X017082Y018396D01*
X017082Y018373D01*
X017096Y018287D01*
X017122Y018205D01*
X017162Y018128D01*
X017212Y018057D01*
X017274Y017996D01*
X017344Y017945D01*
X017378Y017928D01*
X017309Y017899D01*
X017149Y017739D01*
X017062Y017529D01*
X017062Y017426D01*
X016641Y017005D01*
X016632Y017027D01*
X016503Y017156D01*
X016334Y017226D01*
X015631Y017226D01*
X015462Y017156D01*
X015332Y017027D01*
X015262Y016858D01*
X015262Y016675D01*
X015332Y016506D01*
X015462Y016376D01*
X015631Y016306D01*
X016334Y016306D01*
X016503Y016376D01*
X016511Y016384D01*
X016699Y016384D01*
X016795Y016424D01*
X017306Y016935D01*
X017309Y016933D01*
X017350Y016916D01*
X017309Y016899D01*
X017149Y016739D01*
X017062Y016529D01*
X017062Y016302D01*
X017079Y016262D01*
X016934Y016117D01*
X016542Y016117D01*
X016503Y016156D01*
X016334Y016226D01*
X015631Y016226D01*
X015462Y016156D01*
X015332Y016027D01*
X015262Y015858D01*
X015262Y015675D01*
X015332Y015506D01*
X015462Y015376D01*
X015631Y015306D01*
X016334Y015306D01*
X016503Y015376D01*
X016632Y015506D01*
X016670Y015597D01*
X017093Y015597D01*
X017189Y015636D01*
X017433Y015881D01*
X017519Y015846D01*
X017745Y015846D01*
X017955Y015933D01*
X018097Y016075D01*
X018121Y016050D01*
X018215Y016050D01*
X018307Y016050D01*
X018307Y016050D01*
X018333Y016050D01*
X018333Y014999D01*
X018121Y014999D01*
X018117Y014995D01*
X018115Y014999D01*
X017955Y015159D01*
X017745Y015246D01*
X017519Y015246D01*
X017309Y015159D01*
X017149Y014999D01*
X017123Y014936D01*
X016670Y014936D01*
X016632Y015027D01*
X016503Y015156D01*
X016334Y015226D01*
X015631Y015226D01*
X015462Y015156D01*
X015332Y015027D01*
X015262Y014858D01*
X015262Y014675D01*
X015332Y014506D01*
X015462Y014376D01*
X015631Y014306D01*
X016334Y014306D01*
X016503Y014376D01*
X016542Y014416D01*
X017123Y014416D01*
X017149Y014353D01*
X017309Y014192D01*
X017519Y014106D01*
X017745Y014106D01*
X017955Y014192D01*
X018115Y014353D01*
X018122Y014368D01*
X018211Y014279D01*
X018333Y014279D01*
X018333Y000982D01*
X009192Y000982D01*
X009259Y001016D01*
X009329Y001067D01*
X009390Y001128D01*
X009441Y001198D01*
X009480Y001276D01*
X009507Y001358D01*
X009521Y001443D01*
X009521Y001467D01*
X008991Y001467D01*
X008991Y001507D01*
X009521Y001507D01*
X009521Y001530D01*
X009507Y001615D01*
X009480Y001698D01*
X009441Y001775D01*
X009390Y001845D01*
X009329Y001906D01*
X009259Y001957D01*
X009182Y001996D01*
X009099Y002023D01*
X009014Y002037D01*
X008991Y002037D01*
X008991Y001507D01*
X008951Y001507D01*
X008951Y002037D01*
X008927Y002037D01*
X008842Y002023D01*
X008759Y001996D01*
X008682Y001957D01*
X008612Y001906D01*
X008551Y001845D01*
X008500Y001775D01*
X008482Y001740D01*
X008454Y001810D01*
X008293Y001970D01*
X008084Y002057D01*
X007981Y002057D01*
X007960Y002077D01*
X008994Y003111D01*
X009034Y003207D01*
X009034Y005279D01*
X008994Y005374D01*
X008921Y005447D01*
X007853Y006516D01*
X007853Y007084D01*
X007963Y007130D01*
X008104Y007270D01*
X008180Y007454D01*
X008180Y007653D01*
X008104Y007837D01*
X007963Y007977D01*
X007779Y008054D01*
X006981Y008054D01*
X006797Y007977D01*
X006656Y007837D01*
X006580Y007653D01*
X006580Y007454D01*
X006622Y007352D01*
X006278Y007697D01*
X006278Y014568D01*
X006559Y014849D01*
X006632Y014922D01*
X006632Y014922D01*
X006951Y015241D01*
X007027Y015241D01*
X007005Y015234D01*
X006934Y015198D01*
X006870Y015151D01*
X006814Y015095D01*
X006767Y015031D01*
X006731Y014960D01*
X006706Y014884D01*
X006694Y014806D01*
X006694Y014766D01*
X006694Y014726D01*
X006706Y014648D01*
X006731Y014572D01*
X006767Y014502D01*
X006814Y014437D01*
X006870Y014381D01*
X006934Y014334D01*
X007005Y014298D01*
X007081Y014274D01*
X007159Y014261D01*
X007199Y014261D01*
X007239Y014261D01*
X007317Y014274D01*
X007393Y014298D01*
X007464Y014334D01*
X007528Y014381D01*
X007584Y014437D01*
X007631Y014502D01*
X007667Y014572D01*
X007691Y014648D01*
X007704Y014726D01*
X007704Y014766D01*
X007199Y014766D01*
X007199Y014261D01*
X007199Y014766D01*
X007199Y014766D01*
X007199Y014766D01*
X007704Y014766D01*
X007704Y014806D01*
X007691Y014884D01*
X007667Y014960D01*
X007631Y015031D01*
X007584Y015095D01*
X007528Y015151D01*
X007464Y015198D01*
X007393Y015234D01*
X007371Y015241D01*
X007607Y015241D01*
X007724Y015358D01*
X007724Y016145D01*
X010128Y013741D01*
X010168Y013701D01*
X010051Y013652D01*
X009903Y013505D01*
X009824Y013312D01*
X009824Y013103D01*
X009903Y012910D01*
X010051Y012762D01*
X010172Y012712D01*
X010000Y012712D01*
X009954Y012700D01*
X009913Y012676D01*
X009879Y012643D01*
X009856Y012602D01*
X009844Y012556D01*
X009844Y012207D01*
X009844Y011858D01*
X009856Y011813D01*
X009879Y011772D01*
X009913Y011738D01*
X009954Y011714D01*
X010000Y011702D01*
X010348Y011702D01*
X010348Y012207D01*
X009844Y012207D01*
X010348Y012207D01*
X010348Y012207D01*
X010349Y012207D01*
X010349Y012207D01*
X010854Y012207D01*
X010854Y011858D01*
X010841Y011813D01*
X010818Y011772D01*
X010784Y011738D01*
X010743Y011714D01*
X010697Y011702D01*
X010349Y011702D01*
X010349Y012207D01*
X010854Y012207D01*
X010854Y012556D01*
X010841Y012602D01*
X010818Y012643D01*
X010784Y012676D01*
X010743Y012700D01*
X010697Y012712D01*
X010525Y012712D01*
X010646Y012762D01*
X010794Y012910D01*
X010874Y013103D01*
X010874Y013312D01*
X010794Y013505D01*
X010760Y013538D01*
X010850Y013628D01*
X012282Y013628D01*
X012332Y013506D01*
X012462Y013376D01*
X012631Y013306D01*
X013334Y013306D01*
X013503Y013376D01*
X013632Y013506D01*
X013702Y013675D01*
X013702Y013858D01*
X013632Y014027D01*
X013612Y014048D01*
X013645Y014062D01*
X013719Y014135D01*
X014112Y014528D01*
X014152Y014624D01*
X014152Y017090D01*
X014112Y017185D01*
X014039Y017258D01*
X013679Y017618D01*
X013702Y017675D01*
X013702Y017858D01*
X013632Y018027D01*
X013503Y018156D01*
X013334Y018226D01*
X012631Y018226D01*
X012462Y018156D01*
X012332Y018027D01*
X012262Y017858D01*
X012262Y017675D01*
X012332Y017506D01*
X012462Y017376D01*
X012631Y017306D01*
X013256Y017306D01*
X013337Y017225D01*
X013334Y017226D01*
X012631Y017226D01*
X012462Y017156D01*
X012332Y017027D01*
X012282Y016904D01*
X010850Y016904D01*
X010726Y017028D01*
X010803Y017213D01*
X010803Y017422D01*
X010723Y017615D01*
X010575Y017762D01*
X010503Y017792D01*
X010685Y017792D01*
X010803Y017910D01*
X010803Y018353D01*
X012519Y018353D01*
X012631Y018306D01*
X013334Y018306D01*
X013503Y018376D01*
X013632Y018506D01*
X013702Y018675D01*
X013702Y018828D01*
X014138Y018392D01*
X014234Y018353D01*
X015519Y018353D01*
X015631Y018306D01*
X016334Y018306D01*
X016503Y018376D01*
X016632Y018506D01*
X016702Y018675D01*
X016702Y018858D01*
X016632Y019027D01*
X016503Y019156D01*
X016334Y019226D01*
X015631Y019226D01*
X015462Y019156D01*
X015332Y019027D01*
X015269Y018873D01*
X014393Y018873D01*
X013719Y019547D01*
X013645Y019620D01*
X013550Y019660D01*
X007935Y019660D01*
X007839Y019620D01*
X007052Y018833D01*
X007051Y018832D01*
X006902Y018770D01*
X006754Y018623D01*
X006682Y018449D01*
X006658Y018439D01*
X006264Y018046D01*
X006191Y017973D01*
X006151Y017877D01*
X006151Y015177D01*
X005797Y014823D01*
X005758Y014727D01*
X005758Y007537D01*
X005797Y007442D01*
X005871Y007369D01*
X006939Y006300D01*
X006939Y005733D01*
X006797Y005674D01*
X006656Y005534D01*
X006580Y005350D01*
X006580Y005151D01*
X006656Y004967D01*
X006797Y004827D01*
X006981Y004750D01*
X007779Y004750D01*
X007963Y004827D01*
X008104Y004967D01*
X008180Y005151D01*
X008180Y005350D01*
X008107Y005526D01*
X008514Y005119D01*
X008514Y003366D01*
X007853Y002705D01*
X007853Y002781D01*
X007963Y002827D01*
X008104Y002967D01*
X008180Y003151D01*
X008180Y003350D01*
X008104Y003534D01*
X007963Y003674D01*
X007779Y003750D01*
X006981Y003750D01*
X006797Y003674D01*
X006656Y003534D01*
X006580Y003350D01*
X006580Y003151D01*
X006656Y002967D01*
X006797Y002827D01*
X006981Y002750D01*
X007333Y002750D01*
X007333Y002025D01*
X007372Y001930D01*
X007445Y001857D01*
X007490Y001812D01*
X007487Y001810D01*
X007401Y001600D01*
X007401Y001373D01*
X007487Y001164D01*
X007648Y001003D01*
X007698Y000982D01*
X005514Y000982D01*
X005514Y001136D02*
X006487Y001136D01*
X006505Y001118D02*
X006872Y001118D01*
X006948Y001195D01*
X006980Y001164D01*
X007166Y001164D01*
X007298Y001295D01*
X007433Y001295D01*
X007298Y001295D02*
X007298Y001752D01*
X007166Y001884D01*
X006939Y001884D01*
X006845Y001884D01*
X006845Y001884D01*
X006845Y001884D01*
X006800Y001839D01*
X006800Y001839D01*
X006712Y001750D01*
X006709Y001748D01*
X006709Y001752D01*
X006577Y001884D01*
X006356Y001884D01*
X006335Y001898D01*
X006265Y001884D01*
X006014Y001884D01*
X005882Y001752D01*
X005882Y001457D01*
X005868Y001436D01*
X005882Y001366D01*
X005882Y001295D01*
X005900Y001278D01*
X005905Y001253D01*
X005964Y001214D01*
X006014Y001164D01*
X006039Y001164D01*
X006060Y001150D01*
X006130Y001164D01*
X006460Y001164D01*
X006505Y001118D01*
X006890Y001136D02*
X007515Y001136D01*
X007401Y001453D02*
X007298Y001453D01*
X007298Y001612D02*
X007405Y001612D01*
X007471Y001770D02*
X007280Y001770D01*
X007373Y001929D02*
X005514Y001929D01*
X005514Y002087D02*
X007333Y002087D01*
X007333Y002246D02*
X005514Y002246D01*
X005514Y002404D02*
X007333Y002404D01*
X007333Y002563D02*
X005514Y002563D01*
X005514Y002721D02*
X007333Y002721D01*
X007853Y002721D02*
X007869Y002721D01*
X008017Y002880D02*
X008028Y002880D01*
X008133Y003038D02*
X008186Y003038D01*
X008180Y003197D02*
X008345Y003197D01*
X008503Y003355D02*
X008178Y003355D01*
X008112Y003514D02*
X008514Y003514D01*
X008514Y003672D02*
X007965Y003672D01*
X007914Y003831D02*
X008514Y003831D01*
X008514Y003989D02*
X008084Y003989D01*
X008091Y003999D02*
X008046Y003938D01*
X007993Y003884D01*
X007932Y003840D01*
X007864Y003806D01*
X007792Y003782D01*
X007718Y003770D01*
X007400Y003770D01*
X007400Y004230D01*
X007360Y004230D01*
X007360Y003770D01*
X007042Y003770D01*
X006968Y003782D01*
X006896Y003806D01*
X006828Y003840D01*
X006767Y003884D01*
X006714Y003938D01*
X006669Y003999D01*
X006635Y004066D01*
X006612Y004138D01*
X006600Y004213D01*
X006600Y004230D01*
X007360Y004230D01*
X007360Y004270D01*
X006600Y004270D01*
X006600Y004288D01*
X006612Y004363D01*
X006635Y004435D01*
X006669Y004502D01*
X006714Y004563D01*
X006767Y004617D01*
X006828Y004661D01*
X006896Y004695D01*
X006968Y004719D01*
X007042Y004730D01*
X007360Y004730D01*
X007360Y004270D01*
X007400Y004270D01*
X008160Y004270D01*
X008160Y004288D01*
X008148Y004363D01*
X008125Y004435D01*
X008091Y004502D01*
X008046Y004563D01*
X007993Y004617D01*
X007932Y004661D01*
X007864Y004695D01*
X007792Y004719D01*
X007718Y004730D01*
X007400Y004730D01*
X007400Y004270D01*
X007400Y004230D01*
X008160Y004230D01*
X008160Y004213D01*
X008148Y004138D01*
X008125Y004066D01*
X008091Y003999D01*
X008150Y004148D02*
X008514Y004148D01*
X008514Y004306D02*
X008157Y004306D01*
X008109Y004465D02*
X008514Y004465D01*
X008514Y004623D02*
X007983Y004623D01*
X007855Y004782D02*
X008514Y004782D01*
X008514Y004940D02*
X008077Y004940D01*
X008158Y005099D02*
X008514Y005099D01*
X008375Y005257D02*
X008180Y005257D01*
X008153Y005416D02*
X008217Y005416D01*
X008635Y005733D02*
X009726Y005733D01*
X009726Y005665D02*
X009726Y005891D01*
X009813Y006101D01*
X009968Y006256D01*
X009873Y006295D01*
X009713Y006455D01*
X009626Y006665D01*
X009626Y006891D01*
X009713Y007101D01*
X009873Y007261D01*
X009968Y007300D01*
X009813Y007455D01*
X009726Y007665D01*
X009726Y007891D01*
X009813Y008101D01*
X009973Y008261D01*
X009988Y008267D01*
X009985Y008268D01*
X009908Y008308D01*
X009838Y008358D01*
X009777Y008420D01*
X009726Y008490D01*
X009686Y008567D01*
X009660Y008649D01*
X009646Y008735D01*
X009646Y008758D01*
X010176Y008758D01*
X010176Y008798D01*
X009646Y008798D01*
X009646Y008821D01*
X009660Y008907D01*
X009686Y008989D01*
X009726Y009066D01*
X009777Y009136D01*
X009838Y009198D01*
X009908Y009248D01*
X009985Y009288D01*
X009988Y009289D01*
X009973Y009295D01*
X009971Y009298D01*
X008115Y009298D01*
X008104Y009270D01*
X007963Y009130D01*
X007779Y009054D01*
X006981Y009054D01*
X006797Y009130D01*
X006656Y009270D01*
X006580Y009454D01*
X006580Y009653D01*
X006656Y009837D01*
X006797Y009977D01*
X006981Y010054D01*
X007779Y010054D01*
X007963Y009977D01*
X008104Y009837D01*
X008112Y009818D01*
X008120Y009818D01*
X008120Y012206D01*
X007625Y012701D01*
X007607Y012682D01*
X007371Y012682D01*
X007393Y012675D01*
X007464Y012639D01*
X007528Y012592D01*
X007584Y012536D01*
X007631Y012472D01*
X007667Y012401D01*
X007691Y012325D01*
X007704Y012247D01*
X007704Y012207D01*
X007199Y012207D01*
X007199Y012207D01*
X007199Y011702D01*
X007239Y011702D01*
X007317Y011715D01*
X007393Y011739D01*
X007464Y011775D01*
X007528Y011822D01*
X007584Y011878D01*
X007631Y011942D01*
X007667Y012013D01*
X007691Y012089D01*
X007704Y012167D01*
X007704Y012207D01*
X007199Y012207D01*
X007199Y012207D01*
X007199Y011702D01*
X007159Y011702D01*
X007081Y011715D01*
X007005Y011739D01*
X006934Y011775D01*
X006870Y011822D01*
X006814Y011878D01*
X006767Y011942D01*
X006731Y012013D01*
X006706Y012089D01*
X006694Y012167D01*
X006694Y012207D01*
X007199Y012207D01*
X007199Y012207D01*
X006694Y012207D01*
X006694Y012247D01*
X006706Y012325D01*
X006731Y012401D01*
X006767Y012472D01*
X006814Y012536D01*
X006870Y012592D01*
X006934Y012639D01*
X007005Y012675D01*
X007027Y012682D01*
X006791Y012682D01*
X006674Y012799D01*
X006674Y013615D01*
X006791Y013732D01*
X007607Y013732D01*
X007724Y013615D01*
X007724Y013328D01*
X007740Y013321D01*
X008527Y012534D01*
X008527Y012534D01*
X008600Y012461D01*
X008640Y012365D01*
X008640Y009818D01*
X009726Y009818D01*
X009726Y009891D01*
X009813Y010101D01*
X009973Y010261D01*
X010183Y010348D01*
X010410Y010348D01*
X010619Y010261D01*
X010779Y010101D01*
X010866Y009891D01*
X010866Y009665D01*
X010779Y009455D01*
X010619Y009295D01*
X010493Y009242D01*
X010554Y009198D01*
X010616Y009136D01*
X010667Y009066D01*
X010706Y008989D01*
X010733Y008907D01*
X010746Y008821D01*
X010746Y008798D01*
X010216Y008798D01*
X010216Y008758D01*
X010746Y008758D01*
X010746Y008735D01*
X010733Y008649D01*
X010706Y008567D01*
X010667Y008490D01*
X010616Y008420D01*
X010554Y008358D01*
X010493Y008314D01*
X010619Y008261D01*
X010779Y008101D01*
X010866Y007891D01*
X010866Y007665D01*
X010779Y007455D01*
X010619Y007295D01*
X010525Y007256D01*
X010679Y007101D01*
X010766Y006891D01*
X010766Y006665D01*
X010679Y006455D01*
X010525Y006300D01*
X010619Y006261D01*
X010779Y006101D01*
X010866Y005891D01*
X010866Y005665D01*
X010779Y005455D01*
X010619Y005295D01*
X010525Y005256D01*
X010661Y005119D01*
X014026Y008484D01*
X014026Y012365D01*
X014065Y012461D01*
X014138Y012534D01*
X015267Y013663D01*
X015262Y013675D01*
X015262Y013858D01*
X015332Y014027D01*
X015462Y014156D01*
X015631Y014226D01*
X016334Y014226D01*
X016503Y014156D01*
X016632Y014027D01*
X016702Y013858D01*
X016702Y013675D01*
X016632Y013506D01*
X016503Y013376D01*
X016334Y013306D01*
X015646Y013306D01*
X015520Y013180D01*
X015631Y013226D01*
X016334Y013226D01*
X016503Y013156D01*
X016632Y013027D01*
X016702Y012858D01*
X016702Y012675D01*
X016632Y012506D01*
X016503Y012376D01*
X016334Y012306D01*
X015631Y012306D01*
X015462Y012376D01*
X015332Y012506D01*
X015262Y012675D01*
X015262Y012858D01*
X015308Y012968D01*
X014546Y012206D01*
X014546Y008325D01*
X014506Y008229D01*
X010562Y004285D01*
X010619Y004261D01*
X010779Y004101D01*
X010866Y003891D01*
X010866Y003665D01*
X010779Y003455D01*
X010661Y003336D01*
X010766Y003231D01*
X010766Y002325D01*
X010649Y002208D01*
X009743Y002208D01*
X009626Y002325D01*
X009626Y003231D01*
X009743Y003348D01*
X009920Y003348D01*
X009813Y003455D01*
X009726Y003665D01*
X009726Y003891D01*
X009813Y004101D01*
X009968Y004256D01*
X009873Y004295D01*
X009713Y004455D01*
X009626Y004665D01*
X009626Y004891D01*
X009713Y005101D01*
X009873Y005261D01*
X009968Y005300D01*
X009813Y005455D01*
X009726Y005665D01*
X009764Y005574D02*
X008794Y005574D01*
X008952Y005416D02*
X009852Y005416D01*
X009869Y005257D02*
X009034Y005257D01*
X009034Y005099D02*
X009712Y005099D01*
X009646Y004940D02*
X009034Y004940D01*
X009034Y004782D02*
X009626Y004782D01*
X009643Y004623D02*
X009034Y004623D01*
X009034Y004465D02*
X009709Y004465D01*
X009862Y004306D02*
X009034Y004306D01*
X009034Y004148D02*
X009860Y004148D01*
X009767Y003989D02*
X009034Y003989D01*
X009034Y003831D02*
X009726Y003831D01*
X009726Y003672D02*
X009034Y003672D01*
X009034Y003514D02*
X009789Y003514D01*
X009913Y003355D02*
X009034Y003355D01*
X009030Y003197D02*
X009626Y003197D01*
X009626Y003038D02*
X008921Y003038D01*
X008763Y002880D02*
X009626Y002880D01*
X009626Y002721D02*
X008604Y002721D01*
X008446Y002563D02*
X009626Y002563D01*
X009626Y002404D02*
X008287Y002404D01*
X008129Y002246D02*
X009705Y002246D01*
X009298Y001929D02*
X018333Y001929D01*
X018333Y002087D02*
X007970Y002087D01*
X008334Y001929D02*
X008644Y001929D01*
X008498Y001770D02*
X008470Y001770D01*
X008951Y001770D02*
X008991Y001770D01*
X008991Y001612D02*
X008951Y001612D01*
X008951Y001929D02*
X008991Y001929D01*
X009443Y001770D02*
X018333Y001770D01*
X018333Y001612D02*
X009508Y001612D01*
X009521Y001453D02*
X018333Y001453D01*
X018333Y001295D02*
X009487Y001295D01*
X009396Y001136D02*
X018333Y001136D01*
X018333Y002246D02*
X010687Y002246D01*
X010766Y002404D02*
X018333Y002404D01*
X018333Y002563D02*
X010766Y002563D01*
X010766Y002721D02*
X018333Y002721D01*
X018333Y002880D02*
X010766Y002880D01*
X010766Y003038D02*
X018333Y003038D01*
X018333Y003197D02*
X010766Y003197D01*
X010680Y003355D02*
X018333Y003355D01*
X018333Y003514D02*
X010804Y003514D01*
X010866Y003672D02*
X018333Y003672D01*
X018333Y003831D02*
X010866Y003831D01*
X010826Y003989D02*
X018333Y003989D01*
X018333Y004148D02*
X010732Y004148D01*
X010583Y004306D02*
X018333Y004306D01*
X018333Y004465D02*
X010742Y004465D01*
X010900Y004623D02*
X018333Y004623D01*
X018333Y004782D02*
X011059Y004782D01*
X011217Y004940D02*
X018333Y004940D01*
X018333Y005099D02*
X011376Y005099D01*
X011534Y005257D02*
X018333Y005257D01*
X018333Y005416D02*
X011693Y005416D01*
X011851Y005574D02*
X018333Y005574D01*
X018333Y005733D02*
X012010Y005733D01*
X012168Y005891D02*
X018333Y005891D01*
X018333Y006050D02*
X012327Y006050D01*
X012485Y006208D02*
X018333Y006208D01*
X018333Y006367D02*
X012644Y006367D01*
X012802Y006525D02*
X018333Y006525D01*
X018333Y006684D02*
X012961Y006684D01*
X013119Y006842D02*
X018333Y006842D01*
X018333Y007001D02*
X013278Y007001D01*
X013436Y007159D02*
X018333Y007159D01*
X018333Y007318D02*
X013595Y007318D01*
X013753Y007476D02*
X018333Y007476D01*
X018333Y007635D02*
X013912Y007635D01*
X014070Y007793D02*
X018333Y007793D01*
X018333Y007952D02*
X014229Y007952D01*
X014387Y008110D02*
X018333Y008110D01*
X018333Y008269D02*
X014522Y008269D01*
X014546Y008427D02*
X018333Y008427D01*
X018333Y008586D02*
X014546Y008586D01*
X014546Y008744D02*
X018333Y008744D01*
X018333Y008903D02*
X014546Y008903D01*
X014546Y009061D02*
X018333Y009061D01*
X018333Y009220D02*
X014546Y009220D01*
X014546Y009378D02*
X018333Y009378D01*
X018333Y009537D02*
X014546Y009537D01*
X014546Y009695D02*
X018333Y009695D01*
X018333Y009854D02*
X014546Y009854D01*
X014546Y010012D02*
X018333Y010012D01*
X018333Y010171D02*
X014546Y010171D01*
X014546Y010329D02*
X018333Y010329D01*
X018333Y010488D02*
X014546Y010488D01*
X014546Y010646D02*
X018333Y010646D01*
X018333Y010805D02*
X014546Y010805D01*
X014546Y010963D02*
X018333Y010963D01*
X018333Y011122D02*
X014546Y011122D01*
X014546Y011280D02*
X018333Y011280D01*
X018333Y011439D02*
X016566Y011439D01*
X016503Y011376D02*
X016334Y011306D01*
X015631Y011306D01*
X015462Y011376D01*
X015332Y011506D01*
X015262Y011675D01*
X015262Y011858D01*
X015332Y012027D01*
X015462Y012156D01*
X015631Y012226D01*
X016334Y012226D01*
X016503Y012156D01*
X016632Y012027D01*
X016702Y011858D01*
X016702Y011675D01*
X016632Y011506D01*
X016503Y011376D01*
X016670Y011597D02*
X018333Y011597D01*
X018333Y011756D02*
X016702Y011756D01*
X016679Y011914D02*
X018333Y011914D01*
X018333Y012073D02*
X016586Y012073D01*
X016517Y012390D02*
X018333Y012390D01*
X018333Y012548D02*
X016650Y012548D01*
X016702Y012707D02*
X018333Y012707D01*
X018333Y012865D02*
X016699Y012865D01*
X016634Y013024D02*
X018333Y013024D01*
X018333Y013182D02*
X016440Y013182D01*
X016418Y013341D02*
X018333Y013341D01*
X018333Y013499D02*
X016626Y013499D01*
X016695Y013658D02*
X018333Y013658D01*
X018333Y013816D02*
X016702Y013816D01*
X016654Y013975D02*
X018333Y013975D01*
X018333Y014133D02*
X017812Y014133D01*
X018054Y014292D02*
X018198Y014292D01*
X017451Y014133D02*
X016526Y014133D01*
X017210Y014292D02*
X013876Y014292D01*
X014034Y014450D02*
X015388Y014450D01*
X015290Y014609D02*
X014146Y014609D01*
X014152Y014767D02*
X015262Y014767D01*
X015291Y014926D02*
X014152Y014926D01*
X014152Y015084D02*
X015390Y015084D01*
X015437Y015401D02*
X014152Y015401D01*
X014152Y015243D02*
X017512Y015243D01*
X017752Y015243D02*
X018333Y015243D01*
X018333Y015401D02*
X016528Y015401D01*
X016655Y015560D02*
X018333Y015560D01*
X018333Y015718D02*
X017271Y015718D01*
X017429Y015877D02*
X017443Y015877D01*
X017821Y015877D02*
X018333Y015877D01*
X018333Y016035D02*
X018058Y016035D01*
X018029Y015084D02*
X018333Y015084D01*
X017235Y015084D02*
X016575Y015084D01*
X016412Y016194D02*
X017011Y016194D01*
X017062Y016352D02*
X016446Y016352D01*
X016882Y016511D02*
X017062Y016511D01*
X017041Y016669D02*
X017120Y016669D01*
X017199Y016828D02*
X017238Y016828D01*
X016939Y017303D02*
X013994Y017303D01*
X014129Y017145D02*
X015451Y017145D01*
X015316Y016986D02*
X014152Y016986D01*
X014152Y016828D02*
X015262Y016828D01*
X015265Y016669D02*
X014152Y016669D01*
X014152Y016511D02*
X015330Y016511D01*
X015519Y016352D02*
X014152Y016352D01*
X014152Y016194D02*
X015553Y016194D01*
X015341Y016035D02*
X014152Y016035D01*
X014152Y015877D02*
X015270Y015877D01*
X015262Y015718D02*
X014152Y015718D01*
X014152Y015560D02*
X015310Y015560D01*
X015439Y014133D02*
X013717Y014133D01*
X013654Y013975D02*
X015311Y013975D01*
X015262Y013816D02*
X013702Y013816D01*
X013695Y013658D02*
X015262Y013658D01*
X015104Y013499D02*
X013626Y013499D01*
X013418Y013341D02*
X014945Y013341D01*
X014787Y013182D02*
X013440Y013182D01*
X013503Y013156D02*
X013334Y013226D01*
X012631Y013226D01*
X012462Y013156D01*
X012332Y013027D01*
X012262Y012858D01*
X012262Y012675D01*
X012332Y012506D01*
X012462Y012376D01*
X012631Y012306D01*
X013334Y012306D01*
X013503Y012376D01*
X013632Y012506D01*
X013702Y012675D01*
X013702Y012858D01*
X013632Y013027D01*
X013503Y013156D01*
X013634Y013024D02*
X014628Y013024D01*
X014470Y012865D02*
X013699Y012865D01*
X013702Y012707D02*
X014311Y012707D01*
X014153Y012548D02*
X013650Y012548D01*
X013517Y012390D02*
X014036Y012390D01*
X014026Y012231D02*
X010854Y012231D01*
X010854Y012073D02*
X012379Y012073D01*
X012332Y012027D02*
X012462Y012156D01*
X012631Y012226D01*
X013334Y012226D01*
X013503Y012156D01*
X013632Y012027D01*
X013702Y011858D01*
X013702Y011675D01*
X013632Y011506D01*
X013503Y011376D01*
X013334Y011306D01*
X012631Y011306D01*
X012462Y011376D01*
X012332Y011506D01*
X012262Y011675D01*
X012262Y011858D01*
X012332Y012027D01*
X012286Y011914D02*
X010854Y011914D01*
X010802Y011756D02*
X012262Y011756D01*
X012294Y011597D02*
X008640Y011597D01*
X008640Y011439D02*
X012399Y011439D01*
X012448Y012390D02*
X010854Y012390D01*
X010854Y012548D02*
X012315Y012548D01*
X012262Y012707D02*
X010717Y012707D01*
X010749Y012865D02*
X012266Y012865D01*
X012331Y013024D02*
X010841Y013024D01*
X010874Y013182D02*
X012525Y013182D01*
X012547Y013341D02*
X010861Y013341D01*
X010796Y013499D02*
X012339Y013499D01*
X013586Y012073D02*
X014026Y012073D01*
X014026Y011914D02*
X013679Y011914D01*
X013702Y011756D02*
X014026Y011756D01*
X014026Y011597D02*
X013670Y011597D01*
X013566Y011439D02*
X014026Y011439D01*
X014026Y011280D02*
X008640Y011280D01*
X008640Y011122D02*
X014026Y011122D01*
X014026Y010963D02*
X008640Y010963D01*
X008640Y010805D02*
X014026Y010805D01*
X014026Y010646D02*
X008640Y010646D01*
X008640Y010488D02*
X014026Y010488D01*
X014026Y010329D02*
X010454Y010329D01*
X010709Y010171D02*
X014026Y010171D01*
X014026Y010012D02*
X010816Y010012D01*
X010866Y009854D02*
X014026Y009854D01*
X014026Y009695D02*
X010866Y009695D01*
X010813Y009537D02*
X014026Y009537D01*
X014026Y009378D02*
X010703Y009378D01*
X010524Y009220D02*
X014026Y009220D01*
X014026Y009061D02*
X010669Y009061D01*
X010733Y008903D02*
X014026Y008903D01*
X014026Y008744D02*
X010746Y008744D01*
X010712Y008586D02*
X014026Y008586D01*
X013969Y008427D02*
X010621Y008427D01*
X010600Y008269D02*
X013810Y008269D01*
X013652Y008110D02*
X010770Y008110D01*
X010841Y007952D02*
X013493Y007952D01*
X013335Y007793D02*
X010866Y007793D01*
X010854Y007635D02*
X013176Y007635D01*
X013018Y007476D02*
X010788Y007476D01*
X010642Y007318D02*
X012859Y007318D01*
X012701Y007159D02*
X010621Y007159D01*
X010721Y007001D02*
X012542Y007001D01*
X012384Y006842D02*
X010766Y006842D01*
X010766Y006684D02*
X012225Y006684D01*
X012067Y006525D02*
X010708Y006525D01*
X010591Y006367D02*
X011908Y006367D01*
X011750Y006208D02*
X010672Y006208D01*
X010800Y006050D02*
X011591Y006050D01*
X011433Y005891D02*
X010866Y005891D01*
X010866Y005733D02*
X011274Y005733D01*
X011116Y005574D02*
X010829Y005574D01*
X010740Y005416D02*
X010957Y005416D01*
X010799Y005257D02*
X010529Y005257D01*
X009726Y005891D02*
X008477Y005891D01*
X008318Y006050D02*
X009792Y006050D01*
X009920Y006208D02*
X008160Y006208D01*
X008001Y006367D02*
X009801Y006367D01*
X009684Y006525D02*
X007853Y006525D01*
X007853Y006684D02*
X009626Y006684D01*
X009626Y006842D02*
X007853Y006842D01*
X007853Y007001D02*
X009672Y007001D01*
X009771Y007159D02*
X007993Y007159D01*
X008124Y007318D02*
X009950Y007318D01*
X009804Y007476D02*
X008180Y007476D01*
X008180Y007635D02*
X009738Y007635D01*
X009726Y007793D02*
X008122Y007793D01*
X007989Y007952D02*
X009751Y007952D01*
X009822Y008110D02*
X007868Y008110D01*
X007864Y008109D02*
X007932Y008143D01*
X007993Y008187D01*
X008046Y008241D01*
X008091Y008302D01*
X008125Y008369D01*
X008148Y008441D01*
X008160Y008516D01*
X008160Y008534D01*
X007400Y008534D01*
X007400Y008574D01*
X007360Y008574D01*
X007360Y009034D01*
X007042Y009034D01*
X006968Y009022D01*
X006896Y008998D01*
X006828Y008964D01*
X006767Y008920D01*
X006714Y008866D01*
X006669Y008805D01*
X006635Y008738D01*
X006612Y008666D01*
X006600Y008591D01*
X006600Y008574D01*
X007360Y008574D01*
X007360Y008534D01*
X006600Y008534D01*
X006600Y008516D01*
X006612Y008441D01*
X006635Y008369D01*
X006669Y008302D01*
X006714Y008241D01*
X006767Y008187D01*
X006828Y008143D01*
X006896Y008109D01*
X006968Y008085D01*
X007042Y008074D01*
X007360Y008074D01*
X007360Y008534D01*
X007400Y008534D01*
X007400Y008074D01*
X007718Y008074D01*
X007792Y008085D01*
X007864Y008109D01*
X008066Y008269D02*
X009984Y008269D01*
X009771Y008427D02*
X008144Y008427D01*
X008160Y008574D02*
X008160Y008591D01*
X008148Y008666D01*
X008125Y008738D01*
X008091Y008805D01*
X008046Y008866D01*
X007993Y008920D01*
X007932Y008964D01*
X007864Y008998D01*
X007792Y009022D01*
X007718Y009034D01*
X007400Y009034D01*
X007400Y008574D01*
X008160Y008574D01*
X008160Y008586D02*
X009680Y008586D01*
X009646Y008744D02*
X008121Y008744D01*
X008009Y008903D02*
X009659Y008903D01*
X009723Y009061D02*
X007798Y009061D01*
X008053Y009220D02*
X009869Y009220D01*
X009726Y009854D02*
X008640Y009854D01*
X008640Y010012D02*
X009776Y010012D01*
X009883Y010171D02*
X008640Y010171D01*
X008640Y010329D02*
X010138Y010329D01*
X010348Y011756D02*
X010349Y011756D01*
X010348Y011914D02*
X010349Y011914D01*
X010348Y012073D02*
X010349Y012073D01*
X009844Y012073D02*
X008640Y012073D01*
X008640Y012231D02*
X009844Y012231D01*
X009844Y012390D02*
X008630Y012390D01*
X008513Y012548D02*
X009844Y012548D01*
X009980Y012707D02*
X008354Y012707D01*
X008196Y012865D02*
X009948Y012865D01*
X009856Y013024D02*
X008037Y013024D01*
X007879Y013182D02*
X009824Y013182D01*
X009836Y013341D02*
X007724Y013341D01*
X007724Y013499D02*
X009901Y013499D01*
X010065Y013658D02*
X007681Y013658D01*
X007373Y014292D02*
X009577Y014292D01*
X009419Y014450D02*
X007594Y014450D01*
X007679Y014609D02*
X009260Y014609D01*
X009102Y014767D02*
X007704Y014767D01*
X007678Y014926D02*
X008943Y014926D01*
X008785Y015084D02*
X007592Y015084D01*
X007608Y015243D02*
X008626Y015243D01*
X008468Y015401D02*
X007724Y015401D01*
X007724Y015560D02*
X008309Y015560D01*
X008151Y015718D02*
X007724Y015718D01*
X007724Y015877D02*
X007992Y015877D01*
X007834Y016035D02*
X007724Y016035D01*
X006806Y015084D02*
X006794Y015084D01*
X006720Y014926D02*
X006636Y014926D01*
X006559Y014849D02*
X006559Y014849D01*
X006477Y014767D02*
X006694Y014767D01*
X006694Y014766D02*
X007199Y014766D01*
X006694Y014766D01*
X006719Y014609D02*
X006319Y014609D01*
X006278Y014450D02*
X006804Y014450D01*
X007024Y014292D02*
X006278Y014292D01*
X006278Y014133D02*
X009736Y014133D01*
X009894Y013975D02*
X006278Y013975D01*
X006278Y013816D02*
X010053Y013816D01*
X010128Y013741D02*
X010128Y013741D01*
X009844Y011914D02*
X008640Y011914D01*
X008640Y011756D02*
X009895Y011756D01*
X008120Y011756D02*
X007426Y011756D01*
X007199Y011756D02*
X007199Y011756D01*
X007199Y011914D02*
X007199Y011914D01*
X007199Y012073D02*
X007199Y012073D01*
X006972Y011756D02*
X006278Y011756D01*
X006278Y011914D02*
X006787Y011914D01*
X006712Y012073D02*
X006278Y012073D01*
X006278Y012231D02*
X006694Y012231D01*
X006727Y012390D02*
X006278Y012390D01*
X006278Y012548D02*
X006826Y012548D01*
X006766Y012707D02*
X006278Y012707D01*
X006278Y012865D02*
X006674Y012865D01*
X006674Y013024D02*
X006278Y013024D01*
X006278Y013182D02*
X006674Y013182D01*
X006674Y013341D02*
X006278Y013341D01*
X006278Y013499D02*
X006674Y013499D01*
X006717Y013658D02*
X006278Y013658D01*
X005758Y013658D02*
X005514Y013658D01*
X005514Y013816D02*
X005758Y013816D01*
X005758Y013975D02*
X005514Y013975D01*
X005514Y014133D02*
X005758Y014133D01*
X005758Y014292D02*
X005514Y014292D01*
X005514Y014450D02*
X005758Y014450D01*
X005758Y014609D02*
X005514Y014609D01*
X005514Y014767D02*
X005774Y014767D01*
X005900Y014926D02*
X005514Y014926D01*
X005514Y015084D02*
X006059Y015084D01*
X006151Y015243D02*
X005514Y015243D01*
X005514Y015401D02*
X006151Y015401D01*
X006151Y015560D02*
X005514Y015560D01*
X005514Y015718D02*
X006151Y015718D01*
X006151Y015877D02*
X005514Y015877D01*
X005514Y016035D02*
X006151Y016035D01*
X006151Y016194D02*
X005514Y016194D01*
X005514Y016352D02*
X006151Y016352D01*
X006151Y016511D02*
X005514Y016511D01*
X005514Y016669D02*
X006151Y016669D01*
X006151Y016828D02*
X005514Y016828D01*
X005514Y016986D02*
X006151Y016986D01*
X006151Y017145D02*
X005514Y017145D01*
X005514Y017303D02*
X006151Y017303D01*
X006151Y017462D02*
X005514Y017462D01*
X005514Y017620D02*
X006151Y017620D01*
X006151Y017779D02*
X005514Y017779D01*
X005514Y017937D02*
X006177Y017937D01*
X006314Y018096D02*
X005514Y018096D01*
X005514Y018254D02*
X006473Y018254D01*
X006631Y018413D02*
X005514Y018413D01*
X005514Y018571D02*
X006733Y018571D01*
X006861Y018730D02*
X005514Y018730D01*
X005514Y018888D02*
X007107Y018888D01*
X007265Y019047D02*
X005514Y019047D01*
X005514Y019205D02*
X007424Y019205D01*
X007582Y019364D02*
X005514Y019364D01*
X005514Y019522D02*
X007741Y019522D01*
X005514Y019681D02*
X018333Y019681D01*
X018333Y019522D02*
X013743Y019522D01*
X013902Y019364D02*
X018333Y019364D01*
X018333Y019205D02*
X016384Y019205D01*
X016612Y019047D02*
X018333Y019047D01*
X018333Y018888D02*
X017916Y018888D01*
X018084Y018730D02*
X018157Y018730D01*
X018166Y018739D02*
X018166Y018739D01*
X018166Y018739D01*
X017652Y018730D02*
X017612Y018730D01*
X017612Y018888D02*
X017652Y018888D01*
X017652Y018571D02*
X017612Y018571D01*
X017612Y018413D02*
X016540Y018413D01*
X016660Y018571D02*
X017104Y018571D01*
X017180Y018730D02*
X016702Y018730D01*
X016690Y018888D02*
X017348Y018888D01*
X017106Y018254D02*
X010803Y018254D01*
X010803Y018096D02*
X012402Y018096D01*
X012295Y017937D02*
X010803Y017937D01*
X010535Y017779D02*
X012262Y017779D01*
X012285Y017620D02*
X010717Y017620D01*
X010786Y017462D02*
X012376Y017462D01*
X012451Y017145D02*
X010774Y017145D01*
X010768Y016986D02*
X012316Y016986D01*
X013259Y017303D02*
X010803Y017303D01*
X013540Y018413D02*
X014118Y018413D01*
X013959Y018571D02*
X013660Y018571D01*
X013702Y018730D02*
X013801Y018730D01*
X014219Y019047D02*
X015353Y019047D01*
X015275Y018888D02*
X014377Y018888D01*
X014060Y019205D02*
X015581Y019205D01*
X015688Y018206D02*
X015619Y018195D01*
X015553Y018174D01*
X015492Y018143D01*
X015436Y018102D01*
X015387Y018053D01*
X015346Y017997D01*
X015315Y017935D01*
X015293Y017869D01*
X015282Y017801D01*
X015282Y017766D01*
X015282Y017732D01*
X015293Y017663D01*
X015315Y017597D01*
X015346Y017536D01*
X015387Y017480D01*
X015436Y017431D01*
X015492Y017390D01*
X015553Y017358D01*
X015619Y017337D01*
X015688Y017326D01*
X015982Y017326D01*
X015982Y017766D01*
X015282Y017766D01*
X015982Y017766D01*
X015982Y017766D01*
X015982Y017766D01*
X015982Y017326D01*
X016277Y017326D01*
X016345Y017337D01*
X016411Y017358D01*
X016473Y017390D01*
X016529Y017431D01*
X016578Y017480D01*
X016619Y017536D01*
X016650Y017597D01*
X016672Y017663D01*
X016682Y017732D01*
X016682Y017766D01*
X015982Y017766D01*
X015982Y018206D01*
X015688Y018206D01*
X015430Y018096D02*
X013563Y018096D01*
X013669Y017937D02*
X015316Y017937D01*
X015282Y017779D02*
X013702Y017779D01*
X013680Y017620D02*
X015307Y017620D01*
X015404Y017462D02*
X013835Y017462D01*
X015982Y017462D02*
X015982Y017462D01*
X015982Y017620D02*
X015982Y017620D01*
X015982Y017766D02*
X015982Y017766D01*
X015982Y017766D01*
X015982Y018206D01*
X016277Y018206D01*
X016345Y018195D01*
X016411Y018174D01*
X016473Y018143D01*
X016529Y018102D01*
X016578Y018053D01*
X016619Y017997D01*
X016650Y017935D01*
X016672Y017869D01*
X016682Y017801D01*
X016682Y017766D01*
X015982Y017766D01*
X015982Y017779D02*
X015982Y017779D01*
X015982Y017937D02*
X015982Y017937D01*
X015982Y018096D02*
X015982Y018096D01*
X016535Y018096D02*
X017185Y018096D01*
X017359Y017937D02*
X016649Y017937D01*
X016682Y017779D02*
X017189Y017779D01*
X017100Y017620D02*
X016658Y017620D01*
X016560Y017462D02*
X017062Y017462D01*
X016781Y017145D02*
X016514Y017145D01*
X015525Y013182D02*
X015522Y013182D01*
X015266Y012865D02*
X015205Y012865D01*
X015262Y012707D02*
X015047Y012707D01*
X014888Y012548D02*
X015315Y012548D01*
X015448Y012390D02*
X014730Y012390D01*
X014571Y012231D02*
X018333Y012231D01*
X015379Y012073D02*
X014546Y012073D01*
X014546Y011914D02*
X015286Y011914D01*
X015262Y011756D02*
X014546Y011756D01*
X014546Y011597D02*
X015294Y011597D01*
X015399Y011439D02*
X014546Y011439D01*
X008120Y011439D02*
X006278Y011439D01*
X006278Y011597D02*
X008120Y011597D01*
X008120Y011280D02*
X006278Y011280D01*
X006278Y011122D02*
X008120Y011122D01*
X008120Y010963D02*
X006278Y010963D01*
X006278Y010805D02*
X008120Y010805D01*
X008120Y010646D02*
X006278Y010646D01*
X006278Y010488D02*
X008120Y010488D01*
X008120Y010329D02*
X006278Y010329D01*
X006278Y010171D02*
X008120Y010171D01*
X008120Y010012D02*
X007879Y010012D01*
X008087Y009854D02*
X008120Y009854D01*
X007400Y008903D02*
X007360Y008903D01*
X007360Y008744D02*
X007400Y008744D01*
X007400Y008586D02*
X007360Y008586D01*
X007360Y008427D02*
X007400Y008427D01*
X007400Y008269D02*
X007360Y008269D01*
X007360Y008110D02*
X007400Y008110D01*
X006892Y008110D02*
X006278Y008110D01*
X006278Y007952D02*
X006771Y007952D01*
X006638Y007793D02*
X006278Y007793D01*
X006340Y007635D02*
X006580Y007635D01*
X006580Y007476D02*
X006498Y007476D01*
X006080Y007159D02*
X005514Y007159D01*
X005514Y007001D02*
X006238Y007001D01*
X006397Y006842D02*
X005514Y006842D01*
X005514Y006684D02*
X006555Y006684D01*
X006714Y006525D02*
X005514Y006525D01*
X005514Y006367D02*
X006872Y006367D01*
X006939Y006208D02*
X005514Y006208D01*
X005514Y006050D02*
X006939Y006050D01*
X006939Y005891D02*
X005514Y005891D01*
X005514Y005733D02*
X006938Y005733D01*
X006697Y005574D02*
X005514Y005574D01*
X005514Y005416D02*
X006607Y005416D01*
X006580Y005257D02*
X005514Y005257D01*
X005514Y005099D02*
X006602Y005099D01*
X006683Y004940D02*
X005514Y004940D01*
X005514Y004782D02*
X006905Y004782D01*
X006777Y004623D02*
X005514Y004623D01*
X005514Y004465D02*
X006651Y004465D01*
X006603Y004306D02*
X005514Y004306D01*
X005514Y004148D02*
X006610Y004148D01*
X006676Y003989D02*
X005514Y003989D01*
X005514Y003831D02*
X006846Y003831D01*
X006795Y003672D02*
X005514Y003672D01*
X005514Y003514D02*
X006648Y003514D01*
X006582Y003355D02*
X005514Y003355D01*
X005514Y003197D02*
X006580Y003197D01*
X006627Y003038D02*
X005514Y003038D01*
X005514Y002880D02*
X006743Y002880D01*
X007360Y003831D02*
X007400Y003831D01*
X007400Y003989D02*
X007360Y003989D01*
X007360Y004148D02*
X007400Y004148D01*
X007400Y004306D02*
X007360Y004306D01*
X007360Y004465D02*
X007400Y004465D01*
X007400Y004623D02*
X007360Y004623D01*
X005921Y007318D02*
X005514Y007318D01*
X005514Y007476D02*
X005783Y007476D01*
X005758Y007635D02*
X005514Y007635D01*
X005514Y007793D02*
X005758Y007793D01*
X005758Y007952D02*
X005514Y007952D01*
X005514Y008110D02*
X005758Y008110D01*
X005758Y008269D02*
X005514Y008269D01*
X005514Y008427D02*
X005758Y008427D01*
X005758Y008586D02*
X005514Y008586D01*
X005514Y008744D02*
X005758Y008744D01*
X005758Y008903D02*
X005514Y008903D01*
X005514Y009061D02*
X005758Y009061D01*
X005758Y009220D02*
X005514Y009220D01*
X005514Y009378D02*
X005758Y009378D01*
X005758Y009537D02*
X005514Y009537D01*
X005514Y009695D02*
X005758Y009695D01*
X005758Y009854D02*
X005514Y009854D01*
X005514Y010012D02*
X005758Y010012D01*
X005758Y010171D02*
X005514Y010171D01*
X005514Y010329D02*
X005758Y010329D01*
X005758Y010488D02*
X005514Y010488D01*
X005514Y010646D02*
X005758Y010646D01*
X005758Y010805D02*
X005514Y010805D01*
X005514Y010963D02*
X005758Y010963D01*
X005758Y011122D02*
X005514Y011122D01*
X005514Y011280D02*
X005758Y011280D01*
X005758Y011439D02*
X005514Y011439D01*
X005514Y011597D02*
X005758Y011597D01*
X005758Y011756D02*
X005514Y011756D01*
X005514Y011914D02*
X005758Y011914D01*
X005758Y012073D02*
X005514Y012073D01*
X005514Y012231D02*
X005758Y012231D01*
X005758Y012390D02*
X005514Y012390D01*
X005514Y012548D02*
X005758Y012548D01*
X005758Y012707D02*
X005514Y012707D01*
X005514Y012865D02*
X005758Y012865D01*
X005758Y013024D02*
X005514Y013024D01*
X005514Y013182D02*
X005758Y013182D01*
X005758Y013341D02*
X005514Y013341D01*
X005514Y013499D02*
X005758Y013499D01*
X007199Y014292D02*
X007199Y014292D01*
X007199Y014450D02*
X007199Y014450D01*
X007199Y014609D02*
X007199Y014609D01*
X007199Y014766D02*
X007199Y014766D01*
X007572Y012548D02*
X007777Y012548D01*
X007670Y012390D02*
X007936Y012390D01*
X008094Y012231D02*
X007704Y012231D01*
X007686Y012073D02*
X008120Y012073D01*
X008120Y011914D02*
X007610Y011914D01*
X006881Y010012D02*
X006278Y010012D01*
X006278Y009854D02*
X006673Y009854D01*
X006598Y009695D02*
X006278Y009695D01*
X006278Y009537D02*
X006580Y009537D01*
X006611Y009378D02*
X006278Y009378D01*
X006278Y009220D02*
X006707Y009220D01*
X006962Y009061D02*
X006278Y009061D01*
X006278Y008903D02*
X006751Y008903D01*
X006639Y008744D02*
X006278Y008744D01*
X006278Y008586D02*
X006600Y008586D01*
X006616Y008427D02*
X006278Y008427D01*
X006278Y008269D02*
X006694Y008269D01*
X006690Y001770D02*
X006732Y001770D01*
X005901Y001770D02*
X005514Y001770D01*
X005514Y001612D02*
X005882Y001612D01*
X005880Y001453D02*
X005514Y001453D01*
X005514Y001295D02*
X005883Y001295D01*
M02*
