%
M48
M72
T01C0.0276
T02C0.0320
T03C0.0400
%
T01
X7199Y12207
X7199Y13207
X7199Y14766
X7199Y15766
X7199Y17325
X7199Y18325
X10278Y18317
X10278Y17317
X10349Y15766
X10349Y14766
X10349Y13207
X10349Y12207
T02
X12982Y11766
X12982Y12766
X12982Y13766
X12982Y14766
X12982Y15766
X12982Y16766
X12982Y17766
X12982Y18766
X15982Y18766
X15982Y17766
X15982Y16766
X15982Y15766
X15982Y14766
X15982Y13766
X15982Y12766
X15982Y11766
T03
X7380Y3250
X7380Y4250
X7380Y5250
X7380Y7554
X7380Y8554
X7380Y9554
X10196Y8778
X10296Y7778
X10196Y6778
X10296Y5778
X10196Y4778
X10296Y3778
X10196Y2778
X8971Y1487
X7971Y1487
X10296Y9778
X17632Y14676
X17632Y16416
X17632Y17416
X17632Y18416
M30
